<?xml version="1.0" encoding="UTF-8"?>
<svg width="900" height="500" xmlns="http://www.w3.org/2000/svg">
  <defs>
    <linearGradient id="inputGrad" x1="0%" y1="0%" x2="100%" y2="0%">
      <stop offset="0%" style="stop-color:#e8f5e9"/>
      <stop offset="100%" style="stop-color:#c8e6c9"/>
    </linearGradient>
    <linearGradient id="convGrad" x1="0%" y1="0%" x2="100%" y2="0%">
      <stop offset="0%" style="stop-color:#fff3e0"/>
      <stop offset="100%" style="stop-color:#ffe0b2"/>
    </linearGradient>
    <linearGradient id="poolGrad" x1="0%" y1="0%" x2="100%" y2="0%">
      <stop offset="0%" style="stop-color:#e3f2fd"/>
      <stop offset="100%" style="stop-color:#bbdefb"/>
    </linearGradient>
    <linearGradient id="fcGrad" x1="0%" y1="0%" x2="100%" y2="0%">
      <stop offset="0%" style="stop-color:#f3e5f5"/>
      <stop offset="100%" style="stop-color:#e1bee7"/>
    </linearGradient>
    <marker id="arrow" markerWidth="10" markerHeight="10" refX="9" refY="3" orient="auto">
      <path d="M0,0 L0,6 L9,3 z" fill="#666"/>
    </marker>
  </defs>
  
  <rect width="900" height="500" fill="#fafafa"/>
  
  <text x="450" y="35" text-anchor="middle" font-family="Arial, sans-serif" font-size="22" font-weight="bold" fill="#333">
    CNN Architecture vs. Visual Cortex / CNN架构与视觉皮层对比
  </text>
  
  <!-- CNN Layers -->
  <g transform="translate(50, 80)">
    <text x="350" y="0" text-anchor="middle" font-family="Arial, sans-serif" font-size="16" font-weight="bold" fill="#1976d2">CNN Architecture</text>
    
    <!-- Input -->
    <rect x="0" y="20" width="60" height="60" fill="url(#inputGrad)" stroke="#333" stroke-width="2"/>
    <text x="30" y="55" text-anchor="middle" font-family="Arial, sans-serif" font-size="10">Input</text>
    <text x="30" y="100" text-anchor="middle" font-family="Arial, sans-serif" font-size="9" fill="#666">224×224×3</text>
    
    <line x1="60" y1="50" x2="90" y2="50" stroke="#666" stroke-width="2" marker-end="url(#arrow)"/>
    
    <!-- Conv1 -->
    <rect x="90" y="25" width="50" height="50" fill="url(#convGrad)" stroke="#333" stroke-width="2"/>
    <text x="115" y="55" text-anchor="middle" font-family="Arial, sans-serif" font-size="9">Conv1</text>
    <text x="115" y="95" text-anchor="middle" font-family="Arial, sans-serif" font-size="8" fill="#666">112×112×64</text>
    
    <line x1="140" y1="50" x2="170" y2="50" stroke="#666" stroke-width="2" marker-end="url(#arrow)"/>
    
    <!-- Pool1 -->
    <rect x="170" y="30" width="40" height="40" fill="url(#poolGrad)" stroke="#333" stroke-width="2"/>
    <text x="190" y="55" text-anchor="middle" font-family="Arial, sans-serif" font-size="9">Pool</text>
    <text x="190" y="90" text-anchor="middle" font-family="Arial, sans-serif" font-size="8" fill="#666">56×56×64</text>
    
    <line x1="210" y1="50" x2="240" y2="50" stroke="#666" stroke-width="2" marker-end="url(#arrow)"/>
    
    <!-- Conv2 -->
    <rect x="240" y="27" width="46" height="46" fill="url(#convGrad)" stroke="#333" stroke-width="2"/>
    <text x="263" y="55" text-anchor="middle" font-family="Arial, sans-serif" font-size="9">Conv2</text>
    <text x="263" y="92" text-anchor="middle" font-family="Arial, sans-serif" font-size="8" fill="#666">28×28×128</text>
    
    <line x1="286" y1="50" x2="316" y2="50" stroke="#666" stroke-width="2" marker-end="url(#arrow)"/>
    
    <!-- Pool2 -->
    <rect x="316" y="32" width="36" height="36" fill="url(#poolGrad)" stroke="#333" stroke-width="2"/>
    <text x="334" y="55" text-anchor="middle" font-family="Arial, sans-serif" font-size="9">Pool</text>
    <text x="334" y="88" text-anchor="middle" font-family="Arial, sans-serif" font-size="8" fill="#666">14×14×128</text>
    
    <line x1="352" y1="50" x2="382" y2="50" stroke="#666" stroke-width="2" marker-end="url(#arrow)"/>
    
    <!-- Conv3 -->
    <rect x="382" y="29" width="42" height="42" fill="url(#convGrad)" stroke="#333" stroke-width="2"/>
    <text x="403" y="55" text-anchor="middle" font-family="Arial, sans-serif" font-size="9">Conv3</text>
    <text x="403" y="90" text-anchor="middle" font-family="Arial, sans-serif" font-size="8" fill="#666">7×7×256</text>
    
    <line x1="424" y1="50" x2="454" y2="50" stroke="#666" stroke-width="2" marker-end="url(#arrow)"/>
    
    <!-- FC Layers -->
    <rect x="454" y="20" width="50" height="60" fill="url(#fcGrad)" stroke="#333" stroke-width="2"/>
    <text x="479" y="55" text-anchor="middle" font-family="Arial, sans-serif" font-size="9">FC</text>
    
    <line x1="504" y1="50" x2="534" y2="50" stroke="#666" stroke-width="2" marker-end="url(#arrow)"/>
    
    <rect x="534" y="25" width="40" height="50" fill="url(#fcGrad)" stroke="#333" stroke-width="2"/>
    <text x="554" y="55" text-anchor="middle" font-family="Arial, sans-serif" font-size="9">FC</text>
    
    <line x1="574" y1="50" x2="604" y2="50" stroke="#666" stroke-width="2" marker-end="url(#arrow)"/>
    
    <!-- Output -->
    <rect x="604" y="30" width="60" height="40" fill="#ffebee" stroke="#c62828" stroke-width="2"/>
    <text x="634" y="55" text-anchor="middle" font-family="Arial, sans-serif" font-size="10">Output</text>
  </g>
  
  <!-- Visual Cortex (bottom) -->
  <g transform="translate(50, 250)">
    <text x="350" y="0" text-anchor="middle" font-family="Arial, sans-serif" font-size="16" font-weight="bold" fill="#c62828">Visual Cortex Hierarchy</text>
    
    <!-- Retina -->
    <ellipse cx="30" cy="60" rx="40" ry="30" fill="#ffcdd2" stroke="#c62828" stroke-width="2"/>
    <text x="30" y="65" text-anchor="middle" font-family="Arial, sans-serif" font-size="10">Retina</text>
    
    <line x1="70" y1="60" x2="110" y2="60" stroke="#666" stroke-width="2" marker-end="url(#arrow)"/>
    
    <!-- V1 -->
    <ellipse cx="150" cy="60" rx="45" ry="35" fill="#ffccbc" stroke="#d84315" stroke-width="2"/>
    <text x="150" y="55" text-anchor="middle" font-family="Arial, sans-serif" font-size="11" font-weight="bold">V1</text>
    <text x="150" y="70" text-anchor="middle" font-family="Arial, sans-serif" font-size="9">Primary Visual</text>
    
    <line x1="195" y1="60" x2="235" y2="60" stroke="#666" stroke-width="2" marker-end="url(#arrow)"/>
    
    <!-- V2 -->
    <ellipse cx="275" cy="60" rx="45" ry="35" fill="#ffe0b2" stroke="#ef6c00" stroke-width="2"/>
    <text x="275" y="55" text-anchor="middle" font-family="Arial, sans-serif" font-size="11" font-weight="bold">V2</text>
    <text x="275" y="70" text-anchor="middle" font-family="Arial, sans-serif" font-size="9">Secondary</text>
    
    <line x1="320" y1="60" x2="360" y2="60" stroke="#666" stroke-width="2" marker-end="url(#arrow)"/>
    
    <!-- V4 -->
    <ellipse cx="400" cy="60" rx="45" ry="35" fill="#fff9c4" stroke="#f9a825" stroke-width="2"/>
    <text x="400" y="55" text-anchor="middle" font-family="Arial, sans-serif" font-size="11" font-weight="bold">V4</text>
    <text x="400" y="70" text-anchor="middle" font-family="Arial, sans-serif" font-size="9">Color/Form</text>
    
    <line x1="445" y1="60" x2="485" y2="60" stroke="#666" stroke-width="2" marker-end="url(#arrow)"/>
    
    <!-- IT -->
    <ellipse cx="525" cy="60" rx="50" ry="40" fill="#c8e6c9" stroke="#2e7d32" stroke-width="2"/>
    <text x="525" y="55" text-anchor="middle" font-family="Arial, sans-serif" font-size="11" font-weight="bold">IT</text>
    <text x="525" y="70" text-anchor="middle" font-family="Arial, sans-serif" font-size="9">Object Recognition</text>
    
    <line x1="575" y1="60" x2="615" y2="60" stroke="#666" stroke-width="2" marker-end="url(#arrow)"/>
    
    <!-- PFC -->
    <ellipse cx="655" cy="60" rx="50" ry="40" fill="#bbdefb" stroke="#1565c0" stroke-width="2"/>
    <text x="655" y="55" text-anchor="middle" font-family="Arial, sans-serif" font-size="11" font-weight="bold">PFC</text>
    <text x="655" y="70" text-anchor="middle" font-family="Arial, sans-serif" font-size="9">Decision Making</text>
  </g>
  
  <!-- Mapping lines -->
  <g transform="translate(50, 200)">
    <line x1="30" y1="0" x2="30" y2="50" stroke="#999" stroke-width="1" stroke-dasharray="5,5"/>
    <line x1="115" y1="0" x2="150" y2="50" stroke="#999" stroke-width="1" stroke-dasharray="5,5"/>
    <line x1="263" y1="0" x2="275" y2="50" stroke="#999" stroke-width="1" stroke-dasharray="5,5"/>
    <line x1="403" y1="0" x2="400" y2="50" stroke="#999" stroke-width="1" stroke-dasharray="5,5"/>
    <line x1="479" y1="0" x2="525" y2="50" stroke="#999" stroke-width="1" stroke-dasharray="5,5"/>
    <line x1="634" y1="0" x2="655" y2="50" stroke="#999" stroke-width="1" stroke-dasharray="5,5"/>
  </g>
  
  <text x="450" y="400" text-anchor="middle" font-family="Arial, sans-serif" font-size="12" fill="#666">
    Figure 8.1: CNN layers map to hierarchical visual processing areas in the brain.
  </text>
  <text x="450" y="420" text-anchor="middle" font-family="Arial, sans-serif" font-size="12" fill="#666">
    Early layers (Conv1-2) ≈ V1-V2, Deep layers (Conv3-FC) ≈ V4-IT-PFC
  </text>
</svg>